<svg version="1.1" id="Layer_1" xmlns="http://www.w3.org/2000/svg" xmlns:xlink="http://www.w3.org/1999/xlink" x="0px" y="0px"
	 width="100%" viewBox="0 0 224 224" enable-background="new 0 0 224 224" xml:space="preserve">
<path fill="#0084C2" opacity="1.000000" stroke="none" 
	d="
M77.967361,156.872589 
	C70.965012,145.229370 72.909714,132.238785 82.672211,122.946892 
	C84.057899,121.627998 85.470078,121.040428 87.141052,121.882095 
	C91.845985,124.251968 96.490990,126.740837 101.358444,129.286789 
	C99.629723,132.653473 97.901817,135.323334 96.861160,138.238525 
	C95.795975,141.222397 95.324020,144.530121 98.032455,147.086227 
	C100.782127,149.681259 103.869850,148.843597 106.868011,147.495621 
	C121.982033,140.700226 129.607971,127.799530 127.897507,111.465187 
	C127.533508,107.989105 128.360886,105.753960 131.550659,104.209618 
	C135.817398,102.143845 139.965698,99.833488 144.831512,97.278053 
	C146.175720,109.681213 144.690308,120.705765 141.528351,131.602844 
	C135.517014,152.319839 121.542175,163.667709 100.364304,165.928391 
	C91.772469,166.845551 83.829613,164.529892 77.967361,156.872589 
z"/>
<path fill="#F78F20" opacity="1.000000" stroke="none" 
	d="
M99.311859,95.326660 
	C97.921906,101.944817 99.139084,104.469276 104.751343,107.356224 
	C109.578484,109.839294 114.377769,112.376518 119.631363,115.120674 
	C116.756401,119.148598 114.380997,122.529579 111.946724,125.867622 
	C110.447151,127.923958 108.620590,127.595100 106.651062,126.522003 
	C100.217285,123.016556 93.632889,119.769165 87.335770,116.035698 
	C78.430679,110.755997 75.788010,102.492126 79.320122,92.343628 
	C85.817841,73.674324 110.108536,61.308472 129.071442,67.016319 
	C136.584579,69.277786 143.342789,77.748215 144.286255,85.898476 
	C144.712143,89.577621 143.852402,92.264847 140.202454,94.021187 
	C136.342941,95.878349 132.736069,98.260498 128.279205,100.841682 
	C125.976120,92.038788 122.324646,85.127403 112.169968,86.110214 
	C106.303185,86.678024 101.638809,89.105385 99.311859,95.326660 
z"/>
</svg>